<?xml version="1.0" standalone="no"?>
<!DOCTYPE svg PUBLIC "-//W3C//DTD SVG 20010904//EN"
 "http://www.w3.org/TR/2001/REC-SVG-20010904/DTD/svg10.dtd">
<svg version="1.0" xmlns="http://www.w3.org/2000/svg"
 width="800.000000pt" height="800.000000pt" viewBox="0 0 800.000000 800.000000"
 preserveAspectRatio="xMidYMid meet">
<metadata>
Created by potrace 1.14, written by Peter Selinger 2001-2017
</metadata>
<g transform="translate(0.000000,800.000000) scale(0.100000,-0.100000)"
fill="#000000" stroke="none">
<path d="M3778 7996 c-1 -2 -43 -6 -93 -10 -161 -11 -328 -35 -485 -68 -52
-11 -103 -21 -114 -23 -130 -27 -459 -131 -571 -180 -16 -7 -59 -25 -95 -40
-96 -40 -334 -158 -338 -167 -2 -4 -8 -8 -13 -8 -14 0 -197 -111 -319 -194
-219 -148 -366 -272 -581 -486 -302 -301 -527 -608 -724 -984 -80 -156 -218
-482 -245 -581 -5 -16 -20 -68 -34 -115 -46 -156 -92 -351 -111 -480 -4 -25
-9 -54 -11 -65 -9 -45 -25 -185 -31 -270 -15 -183 -7 -648 11 -765 2 -14 7
-51 11 -84 7 -64 7 -64 29 -186 23 -130 25 -136 61 -280 150 -594 453 -1173
855 -1632 84 -96 306 -317 400 -400 348 -304 795 -569 1220 -725 198 -72 483
-154 620 -177 33 -5 48 -8 118 -21 15 -3 46 -8 68 -11 23 -2 52 -7 65 -9 13
-3 53 -7 89 -10 36 -4 81 -9 100 -11 62 -10 542 -12 635 -3 182 16 211 20 275
30 36 6 81 12 100 15 19 2 46 6 60 9 14 3 34 7 45 9 135 27 335 79 433 113 26
8 52 17 57 18 12 2 16 4 170 62 328 125 633 291 930 507 39 28 72 53 75 56 3
3 25 21 50 40 63 49 90 72 210 181 572 522 976 1194 1170 1944 22 83 42 166
45 185 3 19 10 51 15 70 4 19 11 57 15 83 3 27 8 58 10 69 3 11 7 46 11 77 3
31 8 64 10 74 25 135 25 725 -1 888 -2 13 -6 50 -10 83 -7 64 -8 71 -26 166
-6 36 -13 78 -16 94 -11 65 -76 318 -107 416 -89 276 -208 551 -323 748 -24
41 -43 76 -43 78 0 19 -272 413 -321 464 -8 9 -30 36 -49 60 -73 95 -343 372
-465 478 -503 436 -1133 748 -1780 883 -178 37 -179 37 -234 45 -25 3 -55 7
-67 9 -11 2 -52 6 -90 10 -38 4 -85 9 -104 12 -38 5 -556 13 -562 9z"/>
</g>
</svg>
